<svg width="26" height="28" viewBox="0 0 26 28" fill="none" xmlns="http://www.w3.org/2000/svg">
<path d="M14 12H26V14H14V12ZM14 17H22V19H14V17ZM14 7H26V9H14V7Z" fill="white"/>
<path d="M18 21.9996V25.9999H2V13.9992H10V11.999H6V5.99867C5.99898 5.07885 6.31495 4.18678 6.89471 3.47271C7.47447 2.75864 8.28259 2.26619 9.18296 2.07831C10.0833 1.89042 11.0209 2.01859 11.8379 2.44121C12.6548 2.86384 13.3011 3.5551 13.668 4.39857L15.5 3.59852C14.9482 2.33551 13.9785 1.30095 12.7538 0.668688C11.5291 0.0364252 10.1242 -0.155 8.77503 0.12658C7.42587 0.40816 6.21475 1.14558 5.34519 2.21493C4.47562 3.28427 4.00062 4.62036 4 5.99867V11.999H2C1.46973 11.9996 0.961329 12.2105 0.586371 12.5854C0.211413 12.9604 0.000529477 13.4689 0 13.9992V25.9999C0.000529477 26.5302 0.211413 27.0386 0.586371 27.4136C0.961329 27.7886 1.46973 27.9995 2 28H18C18.5303 27.9995 19.0387 27.7886 19.4136 27.4136C19.7886 27.0386 19.9995 26.5302 20 25.9999V21.9996H18Z" fill="white"/>
</svg>
