<svg width="26" height="27" viewBox="0 0 26 27" fill="none" xmlns="http://www.w3.org/2000/svg">
<path d="M13 25.625C19.6274 25.625 25 20.2524 25 13.625C25 6.99758 19.6274 1.625 13 1.625C6.37258 1.625 1 6.99758 1 13.625C1 20.2524 6.37258 25.625 13 25.625Z" stroke="white" stroke-width="2"/>
<path d="M7.75961 2.9054C8.40816 3.04512 9.00551 3.36129 9.48575 3.81901C9.96599 4.27673 10.3105 4.85822 10.4811 5.49932C10.6518 6.14042 10.6421 6.81621 10.453 7.45213C10.264 8.08805 9.90289 8.65938 9.40967 9.10309C8.91645 9.54679 8.31024 9.84563 7.65794 9.96663C7.00563 10.0876 6.33258 10.0261 5.71304 9.78876C5.0935 9.55146 4.55156 9.14762 4.147 8.62182C3.74244 8.09601 3.491 7.46866 3.42041 6.809M25 14.885C24.5331 14.4087 23.9595 14.0504 23.3266 13.8398C22.6937 13.6292 22.0198 13.5724 21.3606 13.674C20.7014 13.7756 20.0759 14.0328 19.5358 14.4242C18.9957 14.8156 18.5567 15.3301 18.2549 15.9249C17.9532 16.5197 17.7974 17.1779 17.8006 17.8449C17.8038 18.5119 17.9657 19.1685 18.2731 19.7605C18.5805 20.3524 19.0244 20.8626 19.5682 21.2489C20.1119 21.6352 20.7399 21.8864 21.4 21.9818" stroke="white" stroke-width="2"/>
<path d="M16.0001 9.43703L16.0121 9.42383M10.6001 19.625C11.2366 19.625 11.847 19.3722 12.2971 18.9221C12.7472 18.472 13.0001 17.8615 13.0001 17.225C13.0001 16.5885 12.7472 15.9781 12.2971 15.528C11.847 15.0779 11.2366 14.825 10.6001 14.825C9.96355 14.825 9.3531 15.0779 8.90302 15.528C8.45293 15.9781 8.20007 16.5885 8.20007 17.225C8.20007 17.8615 8.45293 18.472 8.90302 18.9221C9.3531 19.3722 9.96355 19.625 10.6001 19.625Z" stroke="white" stroke-width="2" stroke-linecap="round" stroke-linejoin="round"/>
</svg>
