<svg width="22" height="28" viewBox="0 0 22 28" fill="none" xmlns="http://www.w3.org/2000/svg">
<path d="M1.57143 24.8889C1.57143 26.6 2.98571 28 4.71429 28H17.2857C19.0143 28 20.4286 26.6 20.4286 24.8889V9.33333C20.4286 7.62222 19.0143 6.22222 17.2857 6.22222H4.71429C2.98571 6.22222 1.57143 7.62222 1.57143 9.33333V24.8889ZM6.28571 9.33333H15.7143C16.5786 9.33333 17.2857 10.0333 17.2857 10.8889V23.3333C17.2857 24.1889 16.5786 24.8889 15.7143 24.8889H6.28571C5.42143 24.8889 4.71429 24.1889 4.71429 23.3333V10.8889C4.71429 10.0333 5.42143 9.33333 6.28571 9.33333ZM16.5 1.55556L15.3843 0.451111C15.1014 0.171111 14.6929 0 14.2843 0H7.71571C7.30714 0 6.89857 0.171111 6.61571 0.451111L5.5 1.55556H1.57143C0.707143 1.55556 0 2.25556 0 3.11111C0 3.96667 0.707143 4.66667 1.57143 4.66667H20.4286C21.2929 4.66667 22 3.96667 22 3.11111C22 2.25556 21.2929 1.55556 20.4286 1.55556H16.5Z" fill="white"/>
</svg>
