<svg width="24" height="23" viewBox="0 0 24 23" fill="none" xmlns="http://www.w3.org/2000/svg">
<path d="M11.6333 19.4375L11.5181 19.5625L11.3914 19.4375C5.92032 14.05 2.30363 10.4875 2.30363 6.875C2.30363 4.375 4.03134 2.5 6.33497 2.5C8.10876 2.5 9.83648 3.75 10.4469 5.45H12.5893C13.1998 3.75 14.9275 2.5 16.7013 2.5C19.0049 2.5 20.7326 4.375 20.7326 6.875C20.7326 10.4875 17.1159 14.05 11.6333 19.4375ZM16.7013 0C14.6971 0 12.7736 1.0125 11.5181 2.6C10.2627 1.0125 8.33912 0 6.33497 0C2.78739 0 0 3.0125 0 6.875C0 11.5875 3.91616 15.45 9.848 21.2875L11.5181 22.9375L13.1883 21.2875C19.1201 15.45 23.0363 11.5875 23.0363 6.875C23.0363 3.0125 20.2489 0 16.7013 0Z" fill="white"/>
</svg>
