<svg width="31" height="19" viewBox="0 0 31 19" fill="none" xmlns="http://www.w3.org/2000/svg">
<path d="M26.2917 0H4.70837C2.15846 0 0.083374 2.07508 0.083374 4.625V12.3333C0.083374 15.7343 2.84912 18.5 6.25004 18.5H8.77375C10.5713 18.5 12.2887 17.6413 13.3695 16.2014C14.387 14.8463 16.6131 14.8447 17.6306 16.2029C18.1673 16.9147 18.8615 17.4925 19.6588 17.891C20.4561 18.2895 21.3349 18.498 22.2263 18.5H24.75C28.151 18.5 30.9167 15.7343 30.9167 12.3333V4.625C30.9167 2.07508 28.8416 0 26.2917 0ZM27.8334 12.3333C27.8334 14.0338 26.4505 15.4167 24.75 15.4167H22.2263C21.3938 15.4167 20.5968 15.0174 20.0957 14.3529C19.0012 12.8914 17.3254 12.0527 15.5 12.0527C13.6747 12.0527 11.9989 12.8914 10.9043 14.3514C10.6552 14.681 10.3332 14.9485 9.96369 15.1333C9.59414 15.3181 9.18692 15.4151 8.77375 15.4167H6.25004C4.54958 15.4167 3.16671 14.0338 3.16671 12.3333V4.625C3.16671 3.77554 3.85737 3.08333 4.70837 3.08333H26.2917C27.1427 3.08333 27.8334 3.77554 27.8334 4.625V12.3333Z" fill="white"/>
</svg>
