<svg width="24" height="25" viewBox="0 0 24 25" fill="none" xmlns="http://www.w3.org/2000/svg">
<path d="M12.1049 24.625C10.427 24.625 8.85413 24.305 7.38637 23.665C5.9186 23.025 4.6402 22.1598 3.55116 21.0694C2.46212 19.9798 1.598 18.6998 0.958802 17.2294C0.319601 15.759 0 14.1842 0 12.505C0 9.585 0.928839 7.0098 2.78652 4.7794C4.6442 2.549 7.01124 1.1642 9.88764 0.625C9.52809 2.605 9.63795 4.5402 10.2172 6.4306C10.7965 8.321 11.7953 9.9758 13.2135 11.395C14.6317 12.815 16.2848 13.815 18.1729 14.395C20.0609 14.975 21.9933 15.085 23.97 14.725C23.4507 17.605 22.0724 19.975 19.8352 21.835C17.598 23.695 15.0212 24.625 12.1049 24.625ZM12.1049 22.225C13.8627 22.225 15.4906 21.785 16.9888 20.905C18.4869 20.025 19.6654 18.815 20.5243 17.275C18.8065 17.115 17.1785 16.6798 15.6404 15.9694C14.1024 15.259 12.7241 14.2942 11.5056 13.075C10.2871 11.855 9.31835 10.475 8.59925 8.935C7.88015 7.395 7.45069 5.765 7.31086 4.045C5.77278 4.905 4.56949 6.0902 3.70097 7.6006C2.83246 9.111 2.3978 10.7458 2.397 12.505C2.397 15.205 3.34102 17.5002 5.22906 19.3906C7.1171 21.281 9.40904 22.2258 12.1049 22.225ZM19.206 10.225L17.7079 6.925L14.412 5.425L17.7079 3.925L19.206 0.625L20.7041 3.925L24 5.425L20.7041 6.925L19.206 10.225Z" fill="white"/>
</svg>
