<svg width="30" height="27" viewBox="0 0 30 27" fill="none" xmlns="http://www.w3.org/2000/svg">
<path d="M24 8V5.33333H21.3333V2.66667H24V0H26.6667V2.66667H29.3333V5.33333H26.6667V8H24ZM2.66667 26.6667C1.93334 26.6667 1.30534 26.4053 0.782669 25.8827C0.260002 25.36 -0.000886625 24.7324 2.26372e-06 24V8C2.26372e-06 7.26667 0.261336 6.63867 0.784002 6.116C1.30667 5.59333 1.93422 5.33244 2.66667 5.33333H6.86667L9.33334 2.66667H17.3333V5.33333H10.5L8.06667 8H2.66667V24H24V12H26.6667V24C26.6667 24.7333 26.4053 25.3613 25.8827 25.884C25.36 26.4067 24.7324 26.6676 24 26.6667H2.66667ZM13.3333 22C15 22 16.4169 21.4164 17.584 20.2493C18.7511 19.0822 19.3342 17.6658 19.3333 16C19.3333 14.3333 18.7498 12.9164 17.5827 11.7493C16.4156 10.5822 14.9991 9.99911 13.3333 10C11.6667 10 10.2498 10.5836 9.08267 11.7507C7.91556 12.9178 7.33245 14.3342 7.33334 16C7.33334 17.6667 7.91689 19.0836 9.084 20.2507C10.2511 21.4178 11.6676 22.0009 13.3333 22ZM13.3333 19.3333C12.4 19.3333 11.6111 19.0111 10.9667 18.3667C10.3222 17.7222 10 16.9333 10 16C10 15.0667 10.3222 14.2778 10.9667 13.6333C11.6111 12.9889 12.4 12.6667 13.3333 12.6667C14.2667 12.6667 15.0556 12.9889 15.7 13.6333C16.3444 14.2778 16.6667 15.0667 16.6667 16C16.6667 16.9333 16.3444 17.7222 15.7 18.3667C15.0556 19.0111 14.2667 19.3333 13.3333 19.3333Z" fill="white"/>
</svg>
