<svg width="32" height="32" viewBox="0 0 32 32" fill="none" xmlns="http://www.w3.org/2000/svg">
<path d="M0 29.8539V2.1475C0 1.36604 0.275466 0.770706 0.826399 0.361504C1.37733 -0.0476979 1.95887 -0.109505 2.57102 0.176084L30.8522 14.0293C31.6174 14.42 32 15.0771 32 16.0007C32 16.9242 31.6174 17.5814 30.8522 17.9721L2.57102 31.8253C1.95887 32.1095 1.37733 32.047 0.826399 31.6378C0.275466 31.2286 0 30.6339 0 29.8539ZM3.67288 26.657L25.4347 16.0007L3.67288 5.34439V12.8038L14.6915 16.0007L3.67288 19.1976V26.657ZM3.67288 16.0007V5.34439V26.657V16.0007Z" fill="white"/>
</svg>
