<svg width="32" height="30" viewBox="0 0 32 30" fill="none" xmlns="http://www.w3.org/2000/svg">
<path d="M27.5263 12.7895C27.5263 9.66271 26.2842 6.66401 24.0733 4.45306C21.8623 2.2421 18.8636 1 15.7369 1C12.6101 1 9.6114 2.2421 7.40044 4.45306C5.18949 6.66401 3.94739 9.66271 3.94739 12.7895" stroke="white" stroke-width="1.5" stroke-linecap="round" stroke-linejoin="round"/>
<path d="M27.5263 23.1052V23.8421C27.5263 24.6238 27.2158 25.3735 26.6631 25.9262C26.1103 26.4789 25.3606 26.7895 24.5789 26.7895H19.4211M1 19.3297V16.565C1.0001 15.9078 1.21988 15.2694 1.62441 14.7514C2.02894 14.2334 2.595 13.8655 3.23263 13.7061L5.79684 13.0636C5.92714 13.0311 6.06312 13.0288 6.19446 13.0567C6.3258 13.0846 6.44905 13.1421 6.55487 13.2248C6.66068 13.3074 6.74628 13.4131 6.80517 13.5338C6.86406 13.6545 6.89469 13.787 6.89474 13.9212V21.972C6.89497 22.1065 6.86449 22.2394 6.80561 22.3604C6.74673 22.4814 6.66102 22.5873 6.555 22.6702C6.44897 22.7531 6.32543 22.8106 6.19379 22.8385C6.06215 22.8664 5.92589 22.8639 5.79537 22.8311L3.23116 22.1901C2.5938 22.0304 2.02807 21.6624 1.62383 21.1444C1.21959 20.6264 1.00002 19.9882 1 19.3311V19.3297ZM30.4737 19.3297V16.565C30.4736 15.9078 30.2538 15.2694 29.8493 14.7514C29.4447 14.2334 28.8787 13.8655 28.2411 13.7061L25.6768 13.0636C25.5465 13.0311 25.4106 13.0288 25.2792 13.0567C25.1479 13.0846 25.0246 13.1421 24.9188 13.2248C24.813 13.3074 24.7274 13.4131 24.6685 13.5338C24.6096 13.6545 24.579 13.787 24.5789 13.9212V21.972C24.5788 22.1064 24.6092 22.2391 24.668 22.3599C24.7268 22.4808 24.8124 22.5867 24.9182 22.6695C25.0241 22.7523 25.1474 22.8099 25.2789 22.8379C25.4103 22.8659 25.5464 22.8636 25.6768 22.8311L28.2411 22.1901C28.8787 22.0307 29.4447 21.6628 29.8493 21.1448C30.2538 20.6268 30.4736 19.9884 30.4737 19.3311V19.3297Z" stroke="white" stroke-width="1.5"/>
<path d="M17.9474 29H13.5263C12.9401 29 12.3778 28.7671 11.9632 28.3526C11.5487 27.938 11.3158 27.3758 11.3158 26.7895C11.3158 26.2032 11.5487 25.641 11.9632 25.2264C12.3778 24.8119 12.9401 24.579 13.5263 24.579H17.9474C18.5336 24.579 19.0959 24.8119 19.5105 25.2264C19.925 25.641 20.1579 26.2032 20.1579 26.7895C20.1579 27.3758 19.925 27.938 19.5105 28.3526C19.0959 28.7671 18.5336 29 17.9474 29Z" stroke="white" stroke-width="1.5"/>
</svg>
